HIERARCHY
ROOT Hips
{
	OFFSET 0.000000 0.000000 0.000000
	CHANNELS 6 Xposition Yposition Zposition Zrotation Yrotation Xrotation 
	JOINT LHipJoint
	{
		OFFSET 0.000000 0.000000 0.000000
		CHANNELS 3 Zrotation Yrotation Xrotation
		JOINT LeftUpLeg
		{
			OFFSET 1.363060 -1.794630 0.839290
			CHANNELS 3 Zrotation Yrotation Xrotation
			JOINT LeftLeg
			{
				OFFSET 2.448110 -6.726130 0.000000
				CHANNELS 3 Zrotation Yrotation Xrotation
				JOINT LeftFoot
				{
					OFFSET 2.562200 -7.039590 0.000000
					CHANNELS 3 Zrotation Yrotation Xrotation
					JOINT LeftToeBase
					{
						OFFSET 0.157640 -0.433110 2.322550
						CHANNELS 3 Zrotation Yrotation Xrotation
						End Site
						{
							OFFSET 0.000000 0.000000 0.000000
						}
					}
				}
			}
		}
	}
	JOINT RHipJoint
	{
		OFFSET 0.000000 0.000000 0.000000
		CHANNELS 3 Zrotation Yrotation Xrotation
		JOINT RightUpLeg
		{
			OFFSET -1.305520 -1.794630 0.839290
			CHANNELS 3 Zrotation Yrotation Xrotation
			JOINT RightLeg
			{
				OFFSET -2.542530 -6.985550 0.000000
				CHANNELS 3 Zrotation Yrotation Xrotation
				JOINT RightFoot
				{
					OFFSET -2.568260 -7.056230 0.000000
					CHANNELS 3 Zrotation Yrotation Xrotation
					JOINT RightToeBase
					{
						OFFSET -0.164730 -0.452590 2.363150
						CHANNELS 3 Zrotation Yrotation Xrotation
						End Site
						{
							OFFSET 0.000000 0.000000 0.000000
						}
					}
				}
			}
		}
	}
	JOINT LowerBack
	{
		OFFSET 0.000000 0.000000 0.000000
		CHANNELS 3 Zrotation Yrotation Xrotation
		JOINT Spine
		{
			OFFSET 0.028270 2.035590 -0.193380
			CHANNELS 3 Zrotation Yrotation Xrotation
			JOINT Spine1
			{
				OFFSET 0.056720 2.048850 -0.042750
				CHANNELS 3 Zrotation Yrotation Xrotation
				JOINT Neck
				{
					OFFSET 0.000000 0.000000 0.000000
					CHANNELS 3 Zrotation Yrotation Xrotation
					JOINT Neck1
					{
						OFFSET -0.054170 1.746240 0.172020
						CHANNELS 3 Zrotation Yrotation Xrotation
						JOINT Head
						{
							OFFSET 0.104070 1.761360 -0.123970
							CHANNELS 3 Zrotation Yrotation Xrotation
							End Site
							{
								OFFSET 0.000000 0.000000 0.000000
							}
						}
					}
				}
				JOINT LeftShoulder
				{
					OFFSET 0.000000 0.000000 0.000000
					CHANNELS 3 Zrotation Yrotation Xrotation
					JOINT LeftArm
					{
						OFFSET 3.362410 1.200890 -0.311210
						CHANNELS 3 Zrotation Yrotation Xrotation
						JOINT LeftForeArm
						{
							OFFSET 4.983000 -0.000000 -0.000000
							CHANNELS 3 Zrotation Yrotation Xrotation
							JOINT LeftHand
							{
								OFFSET 3.483560 -0.000000 -0.000000
								CHANNELS 3 Zrotation Yrotation Xrotation
								JOINT LeftFingerBase
								{
									OFFSET 0.000000 0.000000 0.000000
									CHANNELS 3 Zrotation Yrotation Xrotation
									JOINT LeftHandIndex1
									{
										OFFSET 0.715260 -0.000000 -0.000000
										CHANNELS 3 Zrotation Yrotation Xrotation
										End Site
										{
											OFFSET 0.000000 0.000000 0.000000
										}
									}
								}
								JOINT LThumb
								{
									OFFSET 0.000000 0.000000 0.000000
									CHANNELS 3 Zrotation Yrotation Xrotation
									End Site
									{
										OFFSET 0.000000 0.000000 0.000000
									}
								}
							}
						}
					}
				}
				JOINT RightShoulder
				{
					OFFSET 0.000000 0.000000 0.000000
					CHANNELS 3 Zrotation Yrotation Xrotation
					JOINT RightArm
					{
						OFFSET -3.136600 1.374050 -0.404650
						CHANNELS 3 Zrotation Yrotation Xrotation
						JOINT RightForeArm
						{
							OFFSET -5.241900 -0.000000 -0.000000
							CHANNELS 3 Zrotation Yrotation Xrotation
							JOINT RightHand
							{
								OFFSET -3.444170 -0.000000 -0.000000
								CHANNELS 3 Zrotation Yrotation Xrotation
								JOINT RightFingerBase
								{
									OFFSET 0.000000 0.000000 0.000000
									CHANNELS 3 Zrotation Yrotation Xrotation
									JOINT RightHandIndex1
									{
										OFFSET -0.622530 -0.000000 -0.000000
										CHANNELS 3 Zrotation Yrotation Xrotation
										End Site
										{
											OFFSET 0.000000 0.000000 0.000000
										}
									}
								}
								JOINT RThumb
								{
									OFFSET 0.000000 0.000000 0.000000
									CHANNELS 3 Zrotation Yrotation Xrotation
									End Site
									{
										OFFSET 0.000000 0.000000 0.000000
									}
								}
							}
						}
					}
				}
			}
		}
	}
}
MOTION
Frames: 5
Frame Time: 0.008333
10.434648 18.022714 -38.590226 -2.352046 -2.801540 5.799077 -3.894910 -3.630171 -0.375502 -9.488276 0.300823 -1.425914 -0.989950 3.076170 5.780915 1.085654 -1.411287 7.290054 2.534800 9.900800 28.656200 0.073113 3.156236 -3.909209 23.546313 4.573871 7.593456 0.992776 -2.244422 2.532338 0.982318 -15.308468 -21.663651 -0.204200 -2.909400 8.026600 1.200802 0.793594 -1.475176 1.010380 0.688689 -5.685527 -2.178393 0.595422 1.784697 -7.288806 -9.475370 -2.961643 11.243746 -13.884679 7.550916 4.170700 -6.844300 1.657800 -0.464283 -9.047893 2.241721 -82.618625 -1.365911 31.832486 14.041558 -19.194596 -2.534951 0.161765 0.557397 -27.570272 19.486369 -11.354774 -4.057400 -7.125000 0.000000 0.000000 -5.648100 17.520500 3.703900 0.547651 8.763354 2.409743 84.457781 -6.243852 25.971303 -17.596466 21.840888 -4.826046 1.033806 2.242578 -6.946141 4.251402 -37.567549 -1.917300 7.125000 0.000000 0.000000 47.387300 -63.382500 -23.738700 
10.434051 18.018330 -38.597399 -2.510315 -2.723549 6.021681 -3.894474 -3.641412 -0.398238 -9.232870 0.241089 -1.805065 -0.987913 3.126163 5.948051 1.086632 -1.384908 7.386351 2.501200 9.840100 28.460300 0.065526 3.149850 -3.894309 23.734358 4.744854 7.271197 0.997412 -2.305535 2.682848 0.996312 -15.402330 -21.680030 -0.203000 -2.901000 8.003200 1.302019 0.762156 -1.730405 1.070099 0.631543 -5.684929 -2.122476 0.570265 1.936436 -7.336067 -9.467093 -2.838862 11.257754 -13.860320 7.299240 4.207200 -6.840600 1.554800 -0.459284 -9.039866 2.240545 -82.592812 -1.380903 32.260475 14.170045 -19.365005 -2.575362 0.157298 0.552824 -26.733277 19.705766 -10.920042 -3.962800 -7.125000 0.000000 0.000000 -5.478600 17.954400 3.539200 0.549144 8.745806 2.428280 84.378954 -6.147878 25.745322 -17.588631 21.941655 -5.006294 1.086650 2.342487 -6.979411 3.657813 -40.852203 -1.603800 7.125000 0.000000 0.000000 52.101600 -65.795200 -29.526500 
10.434250 18.018529 -38.599790 -2.632334 -2.688102 6.040717 -3.890123 -3.635389 -0.396091 -9.066379 0.190678 -1.827706 -0.984408 3.125463 5.962777 1.101509 -1.481885 7.318038 2.496400 9.831300 28.432200 0.057053 3.141888 -3.891231 23.904701 4.714675 7.178539 0.999662 -2.366538 2.834772 1.005518 -15.442929 -21.635503 -0.176900 -2.708900 7.469200 1.439140 0.738981 -1.687267 1.090651 0.592925 -5.697923 -2.167937 0.550749 1.891469 -7.302809 -9.462780 -2.779581 11.193952 -13.836610 7.183595 4.191500 -6.832200 1.497800 -0.460107 -9.034309 2.238974 -82.540830 -1.331819 32.413352 14.166093 -19.365831 -2.571897 0.170694 0.549061 -25.565541 19.602440 -10.777881 -3.890500 -7.125000 0.000000 0.000000 -5.550000 18.114000 3.566200 0.546115 8.747258 2.436551 84.364787 -6.149399 25.685201 -17.604799 22.005222 -5.087753 1.096514 2.383348 -7.010816 3.510037 -42.190169 -1.532000 7.125000 0.000000 0.000000 54.424800 -66.684500 -32.207600 
10.437837 18.020920 -38.596104 -2.521102 -2.671147 5.972348 -3.897571 -3.636847 -0.392560 -9.232419 0.160460 -1.732166 -0.986024 3.129802 5.959257 1.105623 -1.503536 7.355141 2.600000 10.017500 29.033400 0.065311 3.148402 -3.892511 23.767411 4.739231 7.332438 0.999556 -2.318893 2.720219 0.993385 -15.407109 -21.741079 -0.218600 -3.009500 8.305300 1.324005 0.702541 -1.579533 1.090539 0.555675 -5.722860 -2.115383 0.533208 1.787556 -7.453447 -9.392822 -2.701657 11.279419 -13.754521 7.095494 4.259600 -6.796300 1.472000 -0.462629 -9.041729 2.232398 -82.540234 -1.300714 32.806944 14.009772 -19.176428 -2.519836 0.194577 0.547784 -24.139635 19.343291 -10.837576 -3.851300 -7.125000 0.000000 0.000000 -5.740300 18.074300 3.694700 0.535273 8.740948 2.438238 84.326376 -6.298530 25.856101 -17.823999 22.246344 -5.166111 1.074160 2.381047 -6.615207 4.181825 -42.134738 -2.028700 7.125000 0.000000 0.000000 54.979400 -66.447900 -32.343500 
10.440626 18.021419 -38.594709 -2.494507 -2.648353 5.972098 -3.900894 -3.638709 -0.392750 -9.277029 0.143957 -1.730819 -0.986317 3.129683 5.956914 1.110881 -1.530244 7.378684 2.645200 10.097300 29.292300 0.067001 3.149592 -3.891869 23.722347 4.703083 7.333875 0.998512 -2.316199 2.715385 0.990115 -15.386548 -21.738466 -0.225400 -3.055700 8.433900 1.299778 0.674742 -1.561199 1.099814 0.520732 -5.736518 -2.092207 0.516796 1.755840 -7.557366 -9.335818 -2.644863 11.336860 -13.680695 6.971859 4.310800 -6.764100 1.431900 -0.464512 -9.045220 2.228486 -82.515484 -1.279201 33.160604 13.938056 -19.096356 -2.492801 0.215274 0.540529 -22.821452 19.015419 -10.781252 -3.757600 -7.125000 0.000000 0.000000 -5.974300 18.166300 3.834800 0.529259 8.733537 2.441779 84.288301 -6.362167 25.923608 -17.937911 22.389829 -5.237317 1.070784 2.393171 -6.274790 4.498203 -42.648658 -2.284000 7.125000 0.000000 0.000000 56.273600 -66.661200 -33.555200 
